Coordinates
version=1
nRows=5
nColumns=40
inDegrees=yes

Units are S.I. units (second, meters, Newtons, ...)
If the header above contains a line with 'inDegrees', this indicates whether rotational values are in degrees (yes) or radians (no).

endheader
time	pelvis_tilt	pelvis_list	pelvis_rotation	pelvis_tx	pelvis_ty	pelvis_tz	hip_flexion_r	hip_adduction_r	hip_rotation_r	knee_angle_r	knee_angle_r_beta	ankle_angle_r	subtalar_angle_r	mtp_angle_r	hip_flexion_l	hip_adduction_l	hip_rotation_l	knee_angle_l	knee_angle_l_beta	ankle_angle_l	subtalar_angle_l	mtp_angle_l	lumbar_extension	lumbar_bending	lumbar_rotation	arm_flex_r	arm_add_r	arm_rot_r	elbow_flex_r	pro_sup_r	wrist_flex_r	wrist_dev_r	arm_flex_l	arm_add_l	arm_rot_l	elbow_flex_l	pro_sup_l	wrist_flex_l	wrist_dev_l
      3.93300000	     -1.67876855	      4.94589743	      9.05572662	      0.06805798	      1.31342931	     -0.00924726	     28.01420720	     -9.09022359	     -8.10516391	     48.90609791	      0.85357243	    -10.07074423	    -13.04832512	      0.00000000	     64.36003897	     -5.25907475	     -6.32820525	    105.11688116	      1.83463568	      7.84525916	    -13.05189521	      0.00000000	    -54.74760829	     -3.07096374	     -7.41998245	     51.50161643	     10.62686183	    -33.53153544	     36.79074239	     66.57769792	      0.00000000	      0.00000000	     59.01844462	     14.32404140	    -31.13341088	     30.45649108	      2.16204706	      0.00000000	      0.00000000
      3.95000000	     -1.33683943	      4.72622479	      8.70440998	      0.06860016	      1.31383636	     -0.00867663	     27.64753089	     -8.67519494	     -8.83445320	     51.84804475	      0.90491909	     -9.69981735	    -13.29004427	      0.00000000	     64.66779140	     -5.47097656	     -5.80573171	    102.49884641	      1.78894235	      7.97436638	    -13.45014850	      0.00000000	    -55.12395016	     -3.06559253	     -7.08302454	     51.57866735	     10.63173580	    -33.43275578	     36.82252159	     66.57911939	      0.00000000	      0.00000000	     58.97541941	     14.33875935	    -31.11884782	     30.58745676	      2.28970495	      0.00000000	      0.00000000
      3.96700000	     -1.15847428	      4.61153702	      8.36519136	      0.06918172	      1.31397823	     -0.00824195	     28.14534067	     -8.54403607	     -9.55824726	     55.94110115	      0.97635640	     -8.37395511	    -14.66951357	      0.00000000	     64.14252231	     -5.45314404	     -5.57754055	     98.73254761	      1.72320803	      7.90986631	    -14.39996282	      0.00000000	    -55.33052354	     -3.14309827	     -6.88787005	     51.72109812	     10.63461425	    -33.19516837	     36.75844703	     66.66372463	      0.00000000	      0.00000000	     58.93452952	     14.45656682	    -31.48616516	     30.81425358	      2.11299993	      0.00000000	      0.00000000
      3.98300000	     -0.76539445	      4.20889896	      7.80665438	      0.06992442	      1.31450878	     -0.00774376	     29.03062275	     -8.25215305	    -10.25711669	     60.75989633	      1.06046024	     -7.40626952	    -15.56306732	      0.00000000	     62.62727680	     -5.70313318	     -5.15885038	     94.04779581	      1.64144369	      7.60488377	    -15.02174003	      0.00000000	    -55.69305685	     -3.13207314	     -6.35186338	     51.95515768	     10.64622380	    -32.96472227	     36.67210902	     66.69628036	      0.00000000	      0.00000000	     58.88503432	     14.63563380	    -32.05904001	     31.16558983	      2.15360619	      0.00000000	      0.00000000
      4.00000000	     -0.34424061	      3.55506151	      7.25670122	      0.07051733	      1.31509755	     -0.00732938	     30.33498194	     -7.72989396	    -10.55995639	     65.99960230	      1.15191037	     -6.21090979	    -16.08298720	      0.00000000	     60.47346314	     -6.07316555	     -4.62688715	     88.88236367	      1.55128989	      7.25046272	    -15.33680603	      0.00000000	    -56.00281758	     -2.91952528	     -5.59218473	     52.21185428	     10.64582897	    -32.76217328	     36.54849515	     66.79777952	      0.00000000	      0.00000000	     58.78714377	     14.76747844	    -32.52836923	     31.49000836	      2.04915893	      0.00000000	      0.00000000
